<?xml version="1.0" standalone="no"?>
<!DOCTYPE svg PUBLIC "-//W3C//DTD SVG 20010904//EN"
 "http://www.w3.org/TR/2001/REC-SVG-20010904/DTD/svg10.dtd">
<svg version="1.0" xmlns="http://www.w3.org/2000/svg"
 width="300.000000pt" height="300.000000pt" viewBox="0 0 300.000000 300.000000"
 preserveAspectRatio="xMidYMid meet">
<metadata>
Created by potrace 1.14, written by Peter Selinger 2001-2017
</metadata>
<g transform="translate(0.000000,300.000000) scale(0.100000,-0.100000)"
fill="#000000" stroke="none">
<path d="M1483 2983 c-8 -3 -13 -24 -13 -53 0 -37 -4 -49 -18 -52 -17 -5
-1031 -586 -1104 -634 l-37 -24 -36 21 c-19 12 -42 18 -51 15 -22 -8 -14 -48
12 -61 52 -26 49 13 46 -698 l-2 -666 -35 -21 c-66 -41 -35 -90 31 -51 l37 22
36 -25 c20 -13 212 -125 426 -249 215 -124 453 -261 530 -306 77 -44 146 -81
153 -81 8 0 12 -15 12 -44 0 -46 19 -72 45 -62 11 4 15 20 15 55 0 38 4 50 18
53 17 5 1030 586 1104 633 l36 24 41 -22 c36 -19 43 -20 51 -7 16 26 11 40
-22 60 l-33 20 -5 669 -5 668 38 22 c23 14 37 29 37 42 0 29 -23 33 -68 10
-22 -11 -43 -16 -48 -11 -5 5 -193 115 -419 245 -654 378 -702 405 -714 405
-6 0 -11 17 -11 43 0 24 -5 48 -12 55 -13 13 -16 13 -35 5z m-10 -402 l2 -183
-285 -165 c-157 -90 -323 -187 -369 -214 l-83 -49 -159 92 c-87 51 -159 96
-159 99 0 5 191 119 343 204 9 6 130 75 268 155 434 250 433 250 436 246 2 -2
4 -85 6 -185z m522 -76 c424 -246 432 -251 528 -304 31 -18 57 -36 57 -39 0
-4 -72 -49 -159 -99 l-158 -93 -144 84 c-79 46 -245 142 -369 214 l-225 130 2
169 c1 92 2 176 2 186 1 22 -34 41 466 -248z m-516 -399 l1 -204 -127 -74
c-71 -42 -143 -83 -161 -92 l-32 -17 -175 103 c-96 57 -175 105 -175 108 0 3
116 71 258 153 141 81 286 165 322 186 36 22 70 40 76 40 7 1 11 -64 13 -203z
m274 81 c116 -68 263 -152 324 -188 62 -35 113 -66 113 -69 0 -3 -80 -52 -176
-108 l-176 -104 -157 90 -156 90 -1 206 c-1 113 3 206 8 206 4 0 104 -55 221
-123z m-1178 -184 l140 -78 -3 -427 -2 -426 -158 -88 c-86 -48 -160 -88 -163
-90 -3 -2 -6 271 -6 606 l-1 609 27 -14 c14 -7 89 -49 166 -92z m2042 -503 l0
-609 -61 33 c-34 18 -107 59 -163 91 l-103 58 0 427 0 428 163 91 c89 50 162
91 163 91 0 0 1 -274 1 -610z m-395 5 c1 -206 -2 -378 -5 -382 -5 -4 -337 175
-355 192 -2 2 -4 85 -4 186 l0 182 178 102 c99 56 181 100 182 99 2 -1 4 -172
4 -379z m-1248 273 c89 -50 162 -92 164 -93 3 -2 5 -230 3 -330 l-1 -40 -175
-99 c-97 -54 -178 -96 -181 -93 -4 4 -7 495 -5 716 1 53 -13 57 195 -61z m682
6 c82 -48 153 -91 159 -96 13 -12 14 -367 0 -378 -5 -4 -26 -17 -45 -28 -19
-11 -87 -49 -149 -86 -63 -36 -118 -66 -122 -66 -12 0 -303 172 -314 185 -6 8
-10 84 -10 191 l0 179 160 92 c88 51 163 93 166 93 4 0 74 -39 155 -86z m-463
-520 c18 -9 89 -50 160 -92 l127 -74 -1 -204 c-1 -112 -6 -204 -10 -204 -4 0
-63 32 -131 71 -67 40 -138 81 -158 92 -19 10 -55 31 -80 46 -48 28 -50 29
-194 111 -53 30 -96 57 -96 60 0 4 338 208 348 209 2 1 17 -6 35 -15z m823
-86 c95 -57 174 -105 174 -108 0 -3 -33 -24 -73 -46 -115 -66 -529 -305 -563
-325 l-30 -18 -2 208 -3 209 158 91 c87 50 159 91 161 91 2 0 82 -46 178 -102z
m-1194 -197 c46 -27 205 -119 353 -204 149 -86 277 -162 286 -169 13 -13 15
-40 12 -193 -2 -98 -5 -180 -6 -182 -2 -1 -66 34 -143 78 -76 45 -157 91 -179
103 -22 13 -155 90 -295 171 -277 160 -287 166 -372 214 -32 18 -58 36 -58 39
1 5 307 191 317 192 1 0 39 -22 85 -49z m1609 -49 c82 -48 149 -90 149 -93 0
-6 -116 -74 -625 -367 -110 -63 -249 -144 -309 -179 -60 -35 -111 -62 -113
-60 -6 6 -9 357 -3 366 3 5 124 78 270 161 146 84 276 160 290 169 14 8 40 24
59 34 19 10 51 29 70 42 20 13 42 22 49 19 8 -2 81 -43 163 -92z"/>
<path d="M1388 1711 c-53 -32 -103 -62 -110 -69 -17 -14 -19 -265 -2 -282 6
-6 58 -38 115 -71 119 -69 103 -70 235 11 36 22 69 40 73 40 5 0 15 8 23 18
11 13 14 45 14 142 -1 69 -5 130 -9 137 -9 14 -220 133 -233 132 -5 -1 -53
-27 -106 -58z"/>
</g>
</svg>
