<?xml version="1.0" standalone="no" ?>
<!DOCTYPE svg PUBLIC "-//W3C//DTD SVG 1.1//EN" "http://www.w3.org/Graphics/SVG/1.1/DTD/svg11.dtd">
<svg width="114px" height="47px" viewBox="0 0 114 47" style="background-color: #ffffff00" xmlns="http://www.w3.org/2000/svg" xmlns:xlink="http://www.w3.org/1999/xlink" version="1.1" >
<path stroke="none" fill="#000000" transform="matrix(0.05 0 0 0.05 -185 -287)" d="M 3768.86,6535.34 L 3751.14,6504.66 L 4103.07,6301.48 L 4120.78,6311.7 L 4120.78,6332.16 L 3768.86,6535.34 Z " />
<path stroke="none" fill="#000000" transform="matrix(0.05 0 0 0.05 -185 -287)" d="M 4120.78,6332.16 L 4120.78,6311.7 L 4138.49,6301.48 L 4481.56,6499.55 L 4481.56,6540.45 L 4120.78,6332.16 Z " />
<path stroke="none" fill="#000000" transform="matrix(0.05 0 0 0.05 -185 -287)" d="M 4138.49,6301.48 L 4120.78,6311.7 L 4103.07,6301.48 L 4103.07,5895.11 L 4138.49,5895.11 L 4138.49,6301.48 Z " />
<path stroke="none" fill="#000000" transform="matrix(0.05 0 0 0.05 -185 -287)" d="M 4481.56,6540.45 L 4481.56,6499.55 L 4842.34,6291.25 L 4842.34,6332.16 L 4481.56,6540.45 Z " />
<text x="0" y="0" stroke="none" fill="#000000" transform="matrix(0.05 0 0 0.05 69.711 44.021)" font-style="normal" font-weight="normal" font-size="280px" font-family="Helvetica" >
O</text>
<path stroke="none" fill="#000000" transform="matrix(0.05 0 0 0.05 -185 -287)" d="M 4842.34,6332.16 L 4842.34,6291.25 L 5083.35,6430.4 L 5065.64,6461.08 L 4842.34,6332.16 Z " />
<path stroke="none" fill="#000000" transform="matrix(0.05 0 0 0.05 -185 -287)" d="M 5341.32,6460.66 L 5323.61,6429.98 L 5563.9,6291.25 L 5563.9,6332.16 L 5341.32,6460.66 Z " />
<path stroke="none" fill="#000000" transform="matrix(0.05 0 0 0.05 -185 -287)" d="M 5563.9,6332.16 L 5563.9,6291.25 L 5933.53,6504.66 L 5915.82,6535.34 L 5563.9,6332.16 Z " />
<text x="0" y="0" stroke="none" fill="#000000" transform="matrix(0.05 0 0 0.05 87.7499 12.7766)" font-style="normal" font-weight="normal" font-size="280px" font-family="Helvetica" >
O</text>
<path stroke="none" fill="#000000" transform="matrix(0.05 0 0 0.05 -185 -287)" d="M 5537.33,6337.27 L 5501.9,6337.27 L 5501.9,6050.33 L 5537.33,6050.33 L 5537.33,6337.27 Z " />
<path stroke="none" fill="#000000" transform="matrix(0.05 0 0 0.05 -185 -287)" d="M 5625.89,6337.27 L 5590.46,6337.27 L 5590.46,6050.33 L 5625.89,6050.33 L 5625.89,6337.27 Z " />
</svg>
