<?xml version="1.0" encoding="utf-8"?>
<!-- Generator: Adobe Illustrator 28.3.0, SVG Export Plug-In . SVG Version: 6.00 Build 0)  -->
<svg version="1.1" xmlns="http://www.w3.org/2000/svg" xmlns:xlink="http://www.w3.org/1999/xlink" x="0px" y="0px"
	 viewBox="0 0 300 300" enable-background="new 0 0 300 300" xml:space="preserve">
<g id="black_bkg" display="none">
	<g display="inline">
		<rect y="0" width="300" height="300"/>
	</g>
</g>
<g id="Layer_1">
	<g>
		<defs>
			<path id="SVGID_1_" d="M150-27.3L-3.99,61.61v177.81L150,328.33l153.99-88.91V61.61L150-27.3z M182.53,168.78L150,187.56
				l-32.53-18.78v-37.56L150,112.44l32.53,18.78V168.78z"/>
		</defs>
		<clipPath id="SVGID_00000108311060540150026950000013987823314071553669_">
			<use xlink:href="#SVGID_1_"  overflow="visible"/>
		</clipPath>
		<g clip-path="url(#SVGID_00000108311060540150026950000013987823314071553669_)">
			<g id="_x3C_Radial_Repeat_x3E__00000173879154519675891030000015589992552429867943_">
				<path fill="#45747A" stroke="#729DA3" stroke-width="3" stroke-miterlimit="10" d="M150,151.03l1.53,144.66
					c0.01,0.83-0.66,1.51-1.48,1.52c-0.83,0.01-1.51-0.66-1.52-1.48C148.53,295.72,150,151.04,150,151.03L150,151.03z"/>
			</g>
			<g id="_x3C_Radial_Repeat_x3E__00000009560702437417648330000008303215186287482542_">
				<path fill="#45747A" stroke="#729DA3" stroke-width="3" stroke-miterlimit="10" d="M149.11,150.52L24.59,224.17
					c-0.71,0.42-1.63,0.19-2.05-0.53s-0.19-1.63,0.53-2.05C23.07,221.58,149.1,150.52,149.11,150.52L149.11,150.52z"/>
			</g>
			<g id="_x3C_Radial_Repeat_x3E__00000070104896225601343700000009205532792286651311_">
				<path fill="#45747A" stroke="#729DA3" stroke-width="3" stroke-miterlimit="10" d="M149.11,149.48L23.07,78.48
					c-0.72-0.41-0.98-1.32-0.57-2.04s1.32-0.98,2.04-0.57C24.54,75.86,149.1,149.48,149.11,149.48L149.11,149.48z"/>
			</g>
			<g id="_x3C_Radial_Repeat_x3E__00000075858281703058048750000001179129115477309861_">
				<path fill="#45747A" stroke="#729DA3" stroke-width="3" stroke-miterlimit="10" d="M150,148.97L148.47,4.31
					c-0.01-0.83,0.66-1.51,1.48-1.52c0.83-0.01,1.51,0.66,1.52,1.48C151.48,4.28,150,148.96,150,148.97L150,148.97z"/>
			</g>
			<g id="_x3C_Radial_Repeat_x3E__00000045585082443097623950000009959018814306031284_">
				<path fill="#45747A" stroke="#729DA3" stroke-width="3" stroke-miterlimit="10" d="M150.89,149.48l124.51-73.65
					c0.71-0.42,1.63-0.19,2.05,0.53s0.19,1.63-0.53,2.05C276.93,78.42,150.9,149.48,150.89,149.48L150.89,149.48z"/>
			</g>
			<g id="_x3C_Radial_Repeat_x3E__00000044876657229759219690000013889323584928558465_">
				<path fill="#45747A" stroke="#729DA3" stroke-width="3" stroke-miterlimit="10" d="M150.89,150.52l126.04,71.01
					c0.72,0.41,0.98,1.32,0.57,2.04c-0.41,0.72-1.32,0.98-2.04,0.57C275.46,224.14,150.9,150.52,150.89,150.52L150.89,150.52z"/>
			</g>
		</g>
		<g clip-path="url(#SVGID_00000108311060540150026950000013987823314071553669_)">
			<g>
				<path fill="#729DA3" d="M150,112.44l32.53,18.78v37.56L150,187.56l-32.53-18.78v-37.56L150,112.44 M150,108.97l-1.5,0.87
					l-32.53,18.78l-1.5,0.87v1.73v37.56v1.73l1.5,0.87l32.53,18.78l1.5,0.87l1.5-0.87l32.53-18.78l1.5-0.87v-1.73v-37.56v-1.73
					l-1.5-0.87l-32.53-18.78L150,108.97L150,108.97z"/>
			</g>
			<g>
				<path fill="#39838F" d="M150.32,67.11c0.38,0,0.72,0.06,0.98,0.21l69.65,40.21c0.81,0.47,1.3,2.07,1.3,3v78.94
					c0,0.93-0.5,2.53-1.3,3l-69.65,40.21c-0.26,0.15-0.6,0.21-0.98,0.21c-0.8,0-1.75-0.28-2.3-0.6l-68.98-39.83
					c-0.81-0.47-1.3-2.07-1.3-3v-78.94c0-0.93,0.5-2.53,1.3-3l68.98-39.83C148.58,67.39,149.52,67.11,150.32,67.11 M150.32,60.61
					c-1.88,0-3.96,0.55-5.55,1.47L75.8,101.9c-3.59,2.07-4.55,6.4-4.55,8.63v78.94c0,2.23,0.96,6.55,4.55,8.63l68.98,39.83
					c1.59,0.92,3.67,1.47,5.55,1.47c1.56,0,2.99-0.36,4.23-1.08l69.65-40.21c3.59-2.07,4.55-6.4,4.55-8.63v-78.94
					c0-2.23-0.96-6.55-4.55-8.63l-69.65-40.21C153.31,60.97,151.89,60.61,150.32,60.61L150.32,60.61z"/>
			</g>
			<g>
				<path fill="#00697A" d="M150,21.5c0.9,0,1.8,0.23,2.61,0.7l106.78,61.65c1.61,0.93,2.61,2.65,2.61,4.51v123.29
					c0,1.86-0.99,3.58-2.61,4.51l-106.78,61.65c-0.81,0.47-1.71,0.7-2.61,0.7s-1.8-0.23-2.61-0.7L40.62,216.16
					c-1.61-0.93-2.61-2.65-2.61-4.51V88.35c0-1.86,0.99-3.58,2.61-4.51l106.78-61.65C148.2,21.73,149.1,21.5,150,21.5 M150,11.5
					c-2.67,0-5.3,0.7-7.61,2.04L35.62,75.18c-4.69,2.71-7.61,7.76-7.61,13.17v123.29c0,5.42,2.91,10.46,7.61,13.17l106.78,61.65
					c2.31,1.33,4.94,2.04,7.61,2.04c2.67,0,5.3-0.7,7.61-2.04l106.78-61.65c4.69-2.71,7.61-7.76,7.61-13.17V88.35
					c0-5.42-2.91-10.46-7.61-13.17L157.61,13.53C155.3,12.2,152.67,11.5,150,11.5L150,11.5z"/>
			</g>
		</g>
	</g>
	<g>
		<path fill="#66ABD0" d="M173.47,163.27v-26.53c0-0.18-0.09-0.34-0.25-0.43l-22.97-13.26c-0.15-0.09-0.34-0.09-0.49,0l-22.97,13.26
			c-0.15,0.09-0.25,0.25-0.25,0.43v26.53c0,0.18,0.09,0.34,0.25,0.43l22.97,13.26c0.15,0.09,0.34,0.09,0.49,0l22.97-13.26
			C173.37,163.61,173.47,163.44,173.47,163.27z"/>
	</g>
</g>
</svg>
